# xmcd
#
# Track frame offsets:
#	150
#	17992
#	35164
#	61836
#	78820
#	101748
#	115595
#	133515
#	152628
#	180852
#	195945
#	211549
#
# Disc length: 3049 seconds
#
# Revision: 0
# Processed by: cddbd v1.5.1PL2 Copyright (c) Steve Scherf et al.
# Submitted via: dBpowerAMP V4.0
#
DISCID=890be70c
DTITLE=Jewel - Goodbye Alice in Wonderland
DYEAR=2006
DGENRE=Country
TTITLE0=Again and Again
TTITLE1=Long Slow Slide
TTITLE2=Goodbye Alice in Wonderland
TTITLE3=Good Day
TTITLE4=Satellite
TTITLE5=Only One Too
TTITLE6=Words Get in the Way
TTITLE7=Drive To You
TTITLE8=Last Dance Rodeo
TTITLE9=Fragile Heart
TTITLE10=Stephenville, TX
TTITLE11=Where You Are
EXTD=
EXTT0=
EXTT1=
EXTT2=
EXTT3=
EXTT4=
EXTT5=
EXTT6=
EXTT7=
EXTT8=
EXTT9=
EXTT10=
EXTT11=
PLAYORDER=
